<svg version="1.1" preserveAspectRatio="none" xmlns="http://www.w3.org/2000/svg" width="500" height="500" viewBox="0 0 500 500"><rect width="100%" height="100%" fill="#1C1C1C" fill-opacity="1"/><svg viewBox="123.2901 158.6231 399.5687 292.5769" width="333" height="243.8331823789001" x="83.5px" y="128.0834px" xmlns="http://www.w3.org/2000/svg" xmlns:xlink="http://www.w3.org/1999/xlink" preserveAspectRatio="none"><defs></defs><style>.companyName {fill:#EDEDED;fill-opacity:1;}.icon1 {fill:#EDEDED;fill-opacity:1;}.icon2 {fill:#F35F40;fill-opacity:1;}.icon3 {fill:#B2B2B1;fill-opacity:1;}.icon3-str {stroke:#B2B2B1;stroke-opacity:1;}</style><g opacity="1" transform="rotate(0 223.1823 158.6231)">
<svg width="199.7843" height="192.5769" x="223.1823" y="158.6231" version="1.1" preserveAspectRatio="none" viewBox="19.59947967529297 22.499996185302734 160.80105590820312 155.00001525878906">
  <g transform="matrix(1 0 0 1 0 0)" ><g><path d="M132.255 143.175h-64.51c-20.463 0-37.11-16.647-37.11-37.106 0-20.463 16.647-37.11 37.11-37.11h64.511c20.463 0 37.11 16.647 37.11 37.11-.001 20.459-16.648 37.106-37.111 37.106zM67.745 74.58c-17.364 0-31.489 14.125-31.489 31.489 0 17.36 14.125 31.485 31.489 31.485h64.511c17.364 0 31.489-14.125 31.489-31.485 0-17.364-14.125-31.489-31.489-31.489H67.745z" data-color="1" class="icon1"></path><path d="M34.298 177.5c-2.474 0-4.973-.644-7.275-1.954-5.522-3.136-8.332-9.193-7.161-15.435l10.96-58.433a2.799 2.799 0 0 1 3.283-2.243 2.815 2.815 0 0 1 2.243 3.283l-10.96 58.433c-.878 4.666 1.705 7.974 4.413 9.511 2.704 1.533 6.869 2.06 10.429-1.083l33.392-29.472a2.81 2.81 0 1 1 3.718 4.216l-33.392 29.472c-2.774 2.446-6.189 3.705-9.65 3.705z" data-color="1" class="icon1"></path><path d="M165.702 177.5c-3.462 0-6.876-1.259-9.65-3.707l-33.392-29.472a2.812 2.812 0 0 1-.249-3.967 2.81 2.81 0 0 1 3.967-.249l33.392 29.472c3.561 3.147 7.729 2.62 10.429 1.083 2.708-1.537 5.291-4.845 4.413-9.511l-10.96-58.433a2.815 2.815 0 0 1 2.243-3.283 2.807 2.807 0 0 1 3.283 2.243l10.96 58.433c1.171 6.243-1.639 12.299-7.161 15.435-2.302 1.312-4.801 1.956-7.275 1.956z" data-color="1" class="icon1"></path><path d="M65.278 121.032a2.81 2.81 0 0 1-2.81-2.81V92.09a2.81 2.81 0 0 1 5.62 0v26.131a2.81 2.81 0 0 1-2.81 2.811z" data-color="1" class="icon1"></path><path d="M78.342 107.968H52.211a2.81 2.81 0 0 1 0-5.62h26.131a2.81 2.81 0 0 1 0 5.62z" data-color="1" class="icon1"></path><path d="M133.478 122.28c-9.441 0-17.122-7.681-17.122-17.122s7.681-17.122 17.122-17.122 17.122 7.681 17.122 17.122-7.681 17.122-17.122 17.122zm0-28.623c-6.342 0-11.502 5.16-11.502 11.501 0 6.342 5.16 11.501 11.502 11.501s11.501-5.16 11.501-11.501c0-6.342-5.159-11.501-11.501-11.501z" data-color="1" class="icon1"></path><path d="M114.676 74.58H85.324a2.81 2.81 0 0 1-2.81-2.81V59.657a2.811 2.811 0 0 1 2.81-2.81h29.352a2.81 2.81 0 0 1 2.81 2.81V71.77a2.81 2.81 0 0 1-2.81 2.81zm-26.542-5.621h23.731v-6.492H88.134v6.492z" data-color="1" class="icon1"></path><path d="M100.155 61.084a2.81 2.81 0 0 1-2.81-2.81V25.31a2.81 2.81 0 0 1 5.62 0v32.964a2.81 2.81 0 0 1-2.81 2.81z" data-color="1" class="icon1"></path></g></g>
</svg>
</g><g opacity="1" transform="rotate(0 123.2901 391.2)">
<svg width="399.5687" height="60" x="123.2901" y="391.2" version="1.1" preserveAspectRatio="none" viewBox="0.6 -34.68 233.08 35">
  <g transform="matrix(1 0 0 1 0 0)" class="companyName"><path id="id-D6z1nYkh11" d="M7.28 0L0.60 0L3.92-34.36L15.56-34.36L18.84 0L12.32 0L11.84-5.56L7.68-5.56L7.28 0ZM9.48-28.52L8.20-11.04L11.32-11.04L9.80-28.52L9.48-28.52Z M37.68 0L23.72 0L23.72-34.36L30.60-34.36L30.60-5.84L37.68-5.84L37.68 0Z M42.40 0L42.40-34.36L51.48-34.36Q55.60-34.36 57.36-31.70Q59.12-29.04 59.12-23.92L59.12-23.92Q59.12-18.80 57.56-16.20Q56-13.60 51.96-13.60L51.96-13.60L49.16-13.60L49.16 0L42.40 0ZM49.16-19.80L49.56-19.80Q50.80-19.80 51.38-20.26Q51.96-20.72 52.14-21.58Q52.32-22.44 52.32-24.04L52.32-24.04Q52.32-26.20 51.84-27.16Q51.36-28.12 49.92-28.12L49.92-28.12L49.16-28.12L49.16-19.80Z M70.92 0L64.08 0L64.08-34.36L70.92-34.36L70.92-22.08L74.16-22.08L74.16-34.36L81-34.36L81 0L74.16 0L74.16-15.60L70.92-15.60L70.92 0Z M92.60 0L85.92 0L89.24-34.36L100.88-34.36L104.16 0L97.64 0L97.16-5.56L93-5.56L92.60 0ZM94.80-28.52L93.52-11.04L96.64-11.04L95.12-28.52L94.80-28.52Z M128.28 0.32Q124.56 0.32 122.74-2.30Q120.92-4.92 120.92-10.24L120.92-10.24L120.92-25.04Q120.92-29.80 123.04-32.24Q125.16-34.68 129.36-34.68L129.36-34.68Q132.76-34.68 134.64-33.32Q136.52-31.96 137.24-29.36Q137.96-26.76 137.96-22.68L137.96-22.68L131.24-22.68L131.24-25.76Q131.24-27 130.90-27.68Q130.56-28.36 129.68-28.36L129.68-28.36Q127.72-28.36 127.72-25.80L127.72-25.80L127.72-9.16Q127.72-7.60 128.12-6.80Q128.52-6 129.52-6L129.52-6Q130.52-6 130.92-6.80Q131.32-7.60 131.32-9.16L131.32-9.16L131.32-14.08L129.48-14.08L129.48-20L137.88-20L137.88 0L135.12 0L133.96-2.88Q132.12 0.32 128.28 0.32L128.28 0.32Z M149.16 0L142.48 0L145.80-34.36L157.44-34.36L160.72 0L154.20 0L153.72-5.56L149.56-5.56L149.16 0ZM151.36-28.52L150.08-11.04L153.20-11.04L151.68-28.52L151.36-28.52Z M171.80 0L165.60 0L165.60-34.36L176.08-34.36L178.96-13.40L181.84-34.36L192.40-34.36L192.40 0L186.12 0L186.12-24.76L182.16 0L176.00 0L171.80-24.76L171.80 0Z M212.44 0L198.24 0L198.24-34.36L212.00-34.36L212.00-27.72L205.24-27.72L205.24-21.04L211.72-21.04L211.72-14.56L205.24-14.56L205.24-6.68L212.44-6.68L212.44 0Z M225.68 0.32Q221.00 0.32 218.92-2Q216.84-4.32 216.84-9.48L216.84-9.48L216.84-12.84L223.60-12.84L223.60-8.56Q223.60-6 225.24-6L225.24-6Q226.16-6 226.52-6.54Q226.88-7.08 226.88-8.36L226.88-8.36Q226.88-10.04 226.48-11.14Q226.08-12.24 225.46-12.98Q224.84-13.72 223.24-15.28L223.24-15.28L220.28-18.24Q216.84-21.60 216.84-25.68L216.84-25.68Q216.84-30.08 218.86-32.38Q220.88-34.68 224.76-34.68L224.76-34.68Q229.40-34.68 231.44-32.22Q233.48-29.76 233.48-24.52L233.48-24.52L226.48-24.52L226.44-26.88Q226.44-27.56 226.06-27.96Q225.68-28.36 225.00-28.36L225.00-28.36Q224.20-28.36 223.80-27.92Q223.40-27.48 223.40-26.72L223.40-26.72Q223.40-25.04 225.32-23.24L225.32-23.24L229.32-19.40Q230.72-18.04 231.64-16.82Q232.56-15.60 233.12-13.94Q233.68-12.28 233.68-10L233.68-10Q233.68-4.92 231.82-2.30Q229.96 0.32 225.68 0.32L225.68 0.32Z"/></g>
</svg>
</g></svg></svg>